<?xml version="1.0" standalone="no"?>
<!DOCTYPE svg PUBLIC "-//W3C//DTD SVG 20010904//EN"
 "http://www.w3.org/TR/2001/REC-SVG-20010904/DTD/svg10.dtd">
<svg version="1.0" xmlns="http://www.w3.org/2000/svg"
 width="460.000000pt" height="460.000000pt" viewBox="0 0 460.000000 460.000000"
 preserveAspectRatio="xMidYMid meet">
<metadata>
Created by potrace 1.14, written by Peter Selinger 2001-2017
</metadata>
<g transform="translate(0.000000,460.000000) scale(0.100000,-0.100000)"
fill="#000000" stroke="none">
<path d="M1612 4390 c-12 -16 -22 -34 -22 -40 0 -5 -9 -15 -20 -22 -11 -7 -20
-22 -20 -33 0 -12 -4 -25 -9 -30 -12 -13 -46 -117 -61 -185 -7 -30 -16 -68
-21 -84 -5 -16 -9 -47 -9 -69 l0 -41 -20 22 c-11 12 -20 25 -20 30 0 5 -20 32
-45 58 -42 46 -62 52 -30 10 19 -25 19 -37 0 -29 -12 4 -10 -4 7 -33 12 -22
25 -41 28 -44 3 -3 18 -28 33 -57 23 -44 25 -56 16 -82 -6 -17 -15 -31 -21
-31 -6 0 -7 7 -4 15 17 43 17 49 -3 25 -18 -22 -21 -23 -21 -6 0 11 -3 16 -7
13 -3 -4 -20 4 -37 17 -17 13 -42 27 -55 31 -20 6 -17 -1 21 -40 l47 -48 -22
-42 c-12 -24 -23 -40 -24 -36 -1 3 -4 32 -8 64 -4 31 -10 55 -14 52 -18 -10
-34 -128 -28 -203 5 -72 4 -75 -8 -42 -7 19 -23 69 -35 110 -12 41 -26 89 -31
105 -5 17 -12 53 -15 80 -4 28 -13 59 -20 70 -12 17 -14 12 -14 -48 0 -38 4
-76 10 -86 5 -10 14 -49 20 -87 6 -38 17 -83 26 -101 13 -29 13 -39 -1 -95 -8
-35 -18 -76 -22 -93 -5 -24 -9 -10 -18 65 -9 70 -13 83 -14 48 -1 -55 -18 -73
-23 -26 -4 32 -4 32 -17 -14 -7 -27 -17 -48 -21 -48 -4 0 -17 9 -30 20 -13 11
-26 20 -30 20 -18 0 -50 40 -50 63 0 14 -4 28 -9 31 -17 11 -17 -70 0 -159 10
-49 16 -91 15 -92 -1 -2 -9 9 -17 25 -8 15 -16 29 -20 32 -8 8 -39 77 -39 88
0 5 -7 15 -15 22 -8 7 -17 27 -21 46 -3 18 -12 38 -19 44 -8 6 -17 25 -20 41
-4 16 -11 32 -17 35 -15 9 -3 -64 18 -113 9 -21 20 -47 24 -58 12 -35 85 -180
93 -186 4 -3 3 -18 -3 -33 -6 -18 -7 -41 0 -69 5 -23 10 -45 10 -49 0 -4 -18
2 -39 14 -28 15 -41 29 -46 52 -6 30 -7 30 -15 9 -17 -42 -23 -24 -18 52 3 42
3 73 0 71 -2 -3 -12 -33 -21 -66 -9 -34 -21 -60 -26 -58 -6 2 -9 58 -8 133 1
74 -2 121 -6 110 -18 -43 -31 -118 -31 -175 0 -45 -4 -62 -15 -66 -10 -4 -12
-10 -6 -18 4 -6 11 -57 13 -113 l5 -103 -39 0 c-37 0 -38 1 -38 34 0 18 -7 49
-15 67 -13 31 -14 17 -9 -154 5 -175 4 -188 -13 -193 -10 -3 -30 -12 -45 -20
-28 -15 -28 -15 -65 43 -50 78 -113 203 -113 224 0 9 -7 22 -16 30 -14 12 -15
8 -9 -37 4 -27 11 -53 15 -59 4 -5 10 -23 14 -40 8 -34 43 -113 61 -135 6 -8
18 -31 25 -50 7 -19 18 -39 25 -45 6 -5 14 -18 18 -28 6 -15 3 -17 -16 -11
-12 3 -29 11 -37 18 -8 6 -33 20 -54 31 -22 11 -63 43 -91 70 -50 48 -135 156
-135 172 0 4 -10 19 -21 33 l-20 25 7 -35 c16 -86 117 -221 220 -295 33 -23
114 -65 129 -65 6 0 18 -7 29 -15 17 -13 16 -17 -33 -64 -29 -28 -68 -63 -86
-77 -19 -14 -32 -31 -29 -39 5 -12 -8 -33 -42 -69 -6 -6 -16 -23 -23 -36 -11
-22 -9 -21 14 5 97 111 117 124 233 151 66 15 102 8 102 -21 0 -8 6 -15 13
-15 8 0 22 -9 32 -20 18 -20 17 -20 -31 -20 -27 0 -58 7 -68 15 -25 19 -50 19
-43 1 4 -11 -7 -16 -46 -21 -29 -4 -72 -16 -97 -26 l-45 -19 112 6 c103 6 114
5 138 -14 25 -20 25 -21 6 -31 -11 -6 -26 -18 -35 -26 -17 -17 -167 -49 -231
-49 -22 0 -49 4 -60 8 -16 7 -18 7 -8 -5 22 -23 14 -35 -41 -58 -30 -12 -77
-44 -105 -71 -77 -74 -66 -75 47 -4 29 19 56 34 61 34 5 0 22 7 37 15 37 19
71 19 108 0 15 -8 35 -15 43 -15 8 0 11 -4 8 -10 -3 -5 -14 -10 -24 -10 -9 0
-26 -7 -37 -15 -17 -13 -15 -14 29 -8 67 8 62 -12 -19 -78 -34 -28 -82 -86
-99 -120 l-18 -34 24 20 c13 11 32 28 43 38 29 29 29 14 0 -49 -15 -33 -30
-72 -33 -88 -5 -20 -19 -35 -51 -53 -25 -14 -47 -27 -50 -30 -8 -7 24 -23 38
-18 6 3 19 8 27 11 12 5 15 -3 16 -42 1 -27 4 -60 8 -74 l8 -25 6 30 c3 17 9
52 13 79 l7 49 86 -6 c47 -4 87 -11 89 -16 2 -5 13 -6 25 -3 18 4 13 -4 -22
-44 -25 -27 -54 -58 -65 -69 -12 -11 -34 -40 -51 -65 -16 -25 -33 -46 -37 -48
-5 -2 -8 -10 -8 -18 0 -8 -3 -14 -7 -14 -9 0 -35 -52 -29 -57 3 -4 35 31 86
94 37 45 133 146 169 176 24 20 36 24 58 18 23 -6 27 -12 25 -34 -2 -15 1 -27
7 -27 6 0 11 7 11 15 0 14 31 21 42 9 5 -5 -23 -78 -54 -139 -5 -11 -34 -35
-63 -54 -57 -36 -156 -129 -192 -179 -28 -38 -30 -53 -5 -26 11 10 41 37 67
59 27 22 54 46 61 53 7 6 15 12 19 12 3 0 21 11 39 25 39 29 60 32 52 8 -3
-10 -2 -31 3 -48 5 -16 10 -23 10 -14 1 23 22 60 48 87 28 27 31 27 35 0 3
-20 6 -18 22 15 20 40 75 92 107 100 24 7 24 -9 -1 -56 -11 -20 -15 -37 -10
-37 6 0 14 8 18 17 21 51 87 126 68 78 -10 -27 -101 -134 -113 -134 -7 -1 -13
-8 -13 -17 0 -9 -22 -60 -48 -113 -53 -104 -52 -102 -88 -241 -27 -106 -31
-214 -11 -272 19 -53 23 -54 31 -8 14 91 80 260 101 260 9 0 12 6 9 15 -7 18
32 130 57 163 16 20 18 21 22 5 3 -10 5 -2 6 17 0 19 13 59 28 88 22 43 37 59
75 78 34 17 48 21 48 11 0 -7 -5 -18 -10 -23 -13 -13 -48 -104 -62 -159 -5
-22 -14 -49 -18 -60 -5 -11 -11 -33 -14 -50 -17 -97 -34 -146 -70 -195 -42
-58 -119 -215 -130 -265 l-7 -30 19 23 c10 13 27 46 38 74 10 27 25 54 32 60
6 6 12 16 12 23 0 6 8 21 18 33 9 12 30 39 45 62 31 44 47 44 47 2 0 -15 9
-38 20 -52 l20 -25 -10 33 c-13 47 -1 128 21 148 18 16 19 16 25 -14 8 -38 25
-33 20 6 -2 15 -1 21 1 15 7 -21 19 -15 32 15 l13 27 15 -43 c13 -40 13 -48
-6 -103 -12 -32 -21 -63 -21 -69 0 -18 28 1 34 23 6 22 7 21 21 -5 8 -14 16
-41 17 -59 3 -31 -1 -36 -47 -59 -27 -14 -52 -28 -55 -32 -3 -3 -19 -10 -35
-14 -17 -4 -39 -13 -50 -20 -19 -13 -18 -14 6 -14 15 0 55 9 89 20 34 11 67
20 72 20 5 0 17 8 26 17 16 16 17 16 20 0 2 -9 10 -17 18 -17 16 0 63 -48 64
-65 0 -17 -114 -145 -130 -145 -5 0 -10 -4 -10 -9 0 -11 -101 -96 -122 -104
-7 -2 -10 -7 -6 -11 7 -8 84 29 106 50 7 8 17 14 22 14 5 0 48 39 96 86 84 84
87 86 113 73 45 -23 47 -22 18 9 -30 32 -30 32 9 91 2 2 31 5 66 7 l63 4 0
-150 c0 -105 4 -153 13 -162 9 -9 12 -7 12 11 0 12 3 20 8 18 4 -3 8 54 10
126 1 73 5 140 8 150 4 14 79 57 99 57 10 0 13 -86 4 -126 -5 -27 -14 -72 -19
-100 -14 -88 -79 -197 -125 -208 -15 -4 -23 -11 -19 -17 10 -17 150 -1 214 23
30 12 67 30 82 40 41 28 48 23 48 -33 0 -28 7 -76 16 -107 15 -51 15 -56 0
-67 -20 -15 -21 -29 -2 -22 8 3 20 -1 26 -9 19 -22 30 -17 30 14 0 20 7 30 27
40 66 30 164 150 218 268 18 40 37 74 42 77 5 3 18 -19 28 -49 17 -51 86 -146
98 -134 3 3 -5 25 -17 50 -31 65 -46 113 -46 143 0 15 -4 27 -10 27 -15 0 -11
92 4 113 9 12 16 14 21 8 3 -6 3 -11 -2 -11 -4 0 -9 -24 -10 -53 -2 -50 -2
-51 14 -29 16 22 17 21 51 -65 35 -88 42 -139 24 -178 -6 -11 -20 -47 -33 -80
-13 -33 -35 -81 -51 -108 l-27 -47 34 0 c33 0 36 3 66 68 54 119 67 147 72
162 8 28 27 -65 28 -140 l0 -75 15 40 c16 41 15 171 -2 223 -4 15 30 -13 92
-76 107 -106 132 -126 219 -172 l56 -29 -20 27 c-10 15 -29 34 -41 42 -48 33
-88 69 -160 140 -98 98 -130 136 -132 158 -4 47 3 112 12 112 6 0 10 -5 10
-10 0 -16 41 -102 64 -133 26 -35 39 -35 22 1 -17 33 -46 122 -46 140 0 6 7
12 15 12 9 0 18 6 21 14 5 12 11 13 32 3 40 -18 58 -45 72 -107 6 -30 18 -65
26 -77 8 -12 14 -28 14 -36 0 -21 69 -147 96 -175 l26 -27 -16 32 c-9 18 -16
37 -16 43 0 5 -8 29 -19 53 -24 54 -64 187 -58 193 2 2 16 -8 30 -22 15 -15
27 -24 27 -20 0 8 -23 49 -31 56 -13 11 -50 92 -46 103 2 6 13 -6 26 -26 13
-21 28 -34 35 -31 7 3 20 -2 29 -10 28 -28 30 -17 4 18 -15 18 -33 53 -42 77
-9 24 -21 52 -26 62 -5 10 -7 22 -4 27 4 6 1 10 -4 10 -6 0 -11 5 -11 10 0 30
24 -2 74 -100 31 -61 60 -116 66 -123 5 -7 36 -46 69 -87 57 -73 131 -150 131
-137 0 9 -31 64 -64 111 -21 31 -26 50 -25 95 0 31 3 49 6 41 3 -8 9 -17 13
-20 3 -3 30 -39 58 -81 68 -99 132 -158 212 -196 65 -31 168 -54 156 -35 -3 5
-17 13 -31 16 -68 17 -161 73 -219 132 -75 77 -86 90 -86 105 0 8 5 8 18 -3 9
-8 31 -23 47 -33 l30 -18 -18 21 c-11 11 -52 55 -92 97 -53 55 -81 93 -101
140 -15 36 -24 68 -21 71 3 4 18 -3 33 -15 15 -11 34 -21 43 -21 9 0 25 -6 36
-14 11 -7 36 -17 55 -21 33 -6 34 -6 15 8 -11 9 -17 19 -12 23 11 11 27 -9 33
-42 3 -16 10 -31 15 -35 5 -3 14 -19 19 -35 8 -27 8 -25 9 18 1 43 3 46 24 41
12 -4 34 -14 49 -25 14 -10 29 -18 33 -18 3 0 26 -13 50 -30 24 -16 50 -30 58
-30 9 0 17 -6 20 -12 2 -7 8 -10 12 -6 8 7 -31 48 -45 48 -3 0 -22 14 -41 31
-19 16 -64 51 -101 76 -38 26 -68 50 -68 55 0 4 11 8 25 8 14 0 25 -4 25 -8 0
-9 95 -68 125 -77 19 -6 19 -6 1 6 -44 27 -125 120 -119 135 3 9 9 12 12 7 12
-18 68 -52 97 -58 28 -7 27 -5 -16 33 -25 22 -42 43 -38 47 3 4 12 -3 18 -15
9 -17 14 -20 20 -10 12 19 90 -33 90 -59 0 -10 7 -32 15 -47 8 -16 16 -40 17
-54 1 -14 4 6 7 44 l6 68 79 -56 c43 -31 80 -56 81 -54 2 2 -10 23 -27 48 -43
62 -120 211 -113 218 6 6 155 -147 155 -160 0 -4 11 -19 24 -33 14 -15 27 -32
29 -38 2 -7 7 -9 11 -6 7 7 -31 85 -51 107 -7 7 -13 19 -13 25 0 14 -42 63
-135 159 -63 64 -80 98 -51 98 8 0 18 -4 21 -10 3 -5 13 -10 21 -10 8 0 33 -9
57 -19 23 -11 59 -22 80 -26 34 -5 41 -12 58 -53 22 -51 47 -116 56 -147 4
-11 9 -22 12 -25 3 -3 16 -25 29 -50 29 -58 90 -134 119 -147 21 -10 22 -9 11
11 -14 26 -51 79 -59 86 -24 18 -148 310 -132 310 2 0 13 -5 24 -10 38 -21 17
18 -47 84 -6 6 -14 24 -18 39 -6 25 -4 27 25 27 l32 0 -26 20 c-14 11 -30 20
-35 20 -8 0 -21 31 -22 51 0 3 66 3 148 1 114 -3 156 0 187 12 l40 15 -76 0
c-127 1 -219 42 -219 96 0 14 2 25 4 25 3 0 33 -13 68 -29 71 -33 149 -51 223
-52 73 -1 87 3 112 32 28 33 29 42 3 34 -21 -7 -23 -3 -34 48 -6 23 -2 29 21
37 38 14 105 50 122 66 11 10 1 9 -40 -2 -30 -9 -64 -20 -76 -26 -13 -6 -26
-8 -30 -5 -3 4 -21 40 -38 81 l-33 74 22 10 21 11 -22 0 c-41 2 -85 61 -138
184 -13 30 -14 41 -5 53 16 18 55 18 77 0 10 -8 47 -36 83 -63 85 -63 80 -59
118 -89 18 -15 35 -24 38 -21 6 6 -122 135 -169 172 -14 11 -26 23 -27 26 0 8
59 34 63 28 2 -2 20 -26 41 -52 42 -53 64 -57 24 -5 -34 45 -39 64 -23 78 15
12 75 10 108 -4 9 -5 17 -4 17 1 0 16 -72 42 -137 49 -53 6 -66 11 -98 44 -43
44 -39 58 29 102 l41 27 20 -24 c11 -14 37 -44 58 -67 20 -23 37 -50 37 -60 0
-18 13 -31 23 -22 4 5 -50 121 -63 134 -3 3 -13 19 -22 36 -16 29 -16 32 -1
55 9 13 21 27 27 31 6 4 8 9 5 12 -3 3 -18 -6 -33 -19 l-29 -25 -28 33 c-15
17 -40 46 -54 64 l-26 32 27 7 c15 4 65 1 111 -6 93 -14 121 -7 49 11 -75 19
-75 20 67 85 33 14 40 15 48 3 7 -11 9 -9 9 8 0 12 10 29 22 37 12 9 19 19 15
23 -4 3 -13 1 -19 -5 -18 -18 -46 -14 -58 7 -5 11 -16 25 -23 33 -39 40 -67
87 -61 103 6 14 15 16 53 10 25 -4 54 -11 63 -16 21 -11 61 -12 54 -1 -3 5
-32 17 -65 28 -34 10 -61 22 -61 25 0 6 19 32 57 79 35 43 113 156 113 163 0
4 -11 0 -25 -9 -14 -9 -25 -20 -25 -25 0 -5 -6 -9 -13 -9 -7 0 -30 -9 -51 -19
-67 -35 -117 -50 -230 -71 -40 -8 -55 -6 -80 8 -42 23 -56 38 -56 58 0 14 -3
14 -15 4 -9 -7 -19 -10 -23 -6 -4 4 2 15 13 24 11 10 31 32 44 50 13 18 41 44
63 58 61 39 224 207 230 237 7 35 -4 28 -118 -80 -19 -18 -38 -33 -43 -33 -5
0 -16 -6 -23 -13 -7 -7 -33 -24 -58 -37 -25 -14 -54 -31 -64 -40 -17 -12 -15
-7 6 30 57 99 66 118 86 176 24 67 40 165 25 149 -5 -5 -18 -32 -27 -60 -27
-74 -49 -125 -55 -125 -3 0 -23 6 -44 13 l-38 14 31 38 c16 21 30 40 30 42 0
3 -22 -11 -49 -31 -42 -31 -56 -36 -102 -36 -65 0 -87 11 -64 30 8 7 23 28 31
46 9 19 20 34 25 34 5 0 9 5 9 11 0 6 13 28 30 49 17 21 30 43 30 48 0 6 6 17
14 25 25 25 121 220 138 280 18 66 16 66 -17 5 -19 -36 -28 -43 -56 -45 -30
-2 -104 -13 -208 -29 l-34 -5 7 63 c7 68 0 67 -34 -7 -31 -68 -42 -77 -116
-92 -38 -8 -75 -14 -81 -15 -7 -1 -13 -5 -13 -10 0 -4 -7 -8 -15 -8 -9 0 -12
6 -9 15 7 16 -11 21 -21 6 -7 -12 -94 -61 -108 -61 -14 0 -1 153 15 179 6 11
19 22 28 25 16 6 62 32 104 59 14 9 32 17 41 17 8 0 15 4 15 9 0 5 10 13 23
17 12 4 33 16 47 27 l25 19 -35 -7 c-32 -7 -78 -27 -144 -62 -16 -9 -48 -17
-72 -19 -43 -2 -43 -2 -28 19 8 12 26 31 40 42 50 40 108 97 84 83 -14 -8 -36
-21 -50 -29 -14 -8 -27 -17 -30 -20 -3 -3 -12 -10 -21 -15 -29 -16 -103 -78
-139 -116 -19 -21 -38 -38 -42 -38 -14 0 8 146 23 156 14 9 10 24 -6 24 -9 0
-18 -8 -21 -17 -3 -10 -10 -27 -14 -38 -5 -11 -12 -31 -16 -45 -8 -31 -49 -70
-73 -70 -9 0 -35 -9 -57 -19 -21 -11 -41 -18 -42 -16 -12 11 105 145 125 145
10 0 13 6 9 17 -4 9 4 33 21 57 34 52 56 74 116 115 27 18 46 36 43 39 -4 3
-19 -3 -34 -14 -55 -41 -75 -38 -51 7 5 11 9 28 7 37 -2 11 -14 1 -36 -33 -18
-28 -38 -58 -45 -69 -6 -10 -45 -53 -85 -95 -70 -72 -74 -75 -72 -46 1 17 2
39 1 50 -1 17 -3 17 -11 5 -8 -12 -10 -10 -11 10 -1 39 -29 -58 -29 -102 0
-21 -7 -44 -17 -54 -16 -15 -17 -15 -24 2 -9 22 0 94 13 110 5 7 11 36 14 65
5 50 4 53 -10 35 -19 -23 -21 -9 -7 42 10 32 44 71 91 102 13 8 35 24 49 36
14 11 53 39 85 62 113 80 10 36 -115 -49 -32 -21 -62 -39 -68 -39 -5 0 -12 -6
-14 -12 -3 -7 -6 7 -7 32 0 25 -7 56 -14 69 -12 21 -13 18 -19 -43 -8 -86 -24
-115 -97 -172 -33 -26 -60 -50 -60 -54 0 -4 -11 -12 -25 -18 -16 -8 -25 -8
-25 -1 0 6 -7 6 -21 -1 -11 -7 -23 -10 -25 -7 -5 4 48 57 81 82 11 8 15 15 8
15 -18 0 -81 -37 -130 -77 l-43 -35 -12 27 c-13 30 -15 28 76 98 53 41 37 46
-21 8 -26 -18 -60 -35 -75 -38 -16 -3 -28 -12 -28 -19 0 -14 -75 -74 -92 -74
-13 0 -9 32 13 101 24 72 58 109 181 202 40 31 83 65 95 76 12 12 26 21 31 21
5 0 15 7 22 15 7 8 8 15 4 15 -13 0 -106 -50 -127 -68 -30 -27 -32 -3 -1 30
42 47 -2 11 -91 -74 -100 -96 -159 -147 -167 -148 -4 0 -10 16 -14 36 -5 28
-2 42 15 64 l21 29 -24 -13 c-14 -7 -67 -56 -120 -109 -52 -53 -93 -89 -89
-79 10 31 86 186 110 227 l24 40 -41 -45 c-43 -48 -131 -191 -170 -277 -13
-29 -27 -53 -32 -53 -4 0 -8 -12 -8 -27 0 -34 -35 -82 -49 -68 -5 6 -21 31
-36 58 l-26 47 38 73 c39 74 45 85 76 118 9 10 17 22 17 25 0 6 65 90 80 104
44 41 130 139 117 134 -9 -3 -17 -10 -17 -15 0 -5 -5 -9 -12 -9 -12 0 -139
-127 -178 -179 -35 -47 -70 -87 -70 -80 0 3 9 24 20 47 11 22 20 45 20 49 0
12 -49 -50 -50 -62 0 -6 -21 -32 -46 -58 -44 -46 -64 -52 -64 -20 0 21 -66
139 -99 176 -34 39 -74 78 -100 98 -20 15 -20 18 -6 45 8 16 15 33 15 38 0 5
7 18 17 28 9 10 12 18 6 18 -5 0 -19 -13 -31 -30z m28 -160 c53 -54 132 -177
144 -224 l7 -29 -28 18 -28 19 27 -32 c23 -27 29 -62 11 -62 -3 0 -3 7 1 15 8
23 -10 18 -26 -7 -14 -21 -17 -21 -33 -8 -17 14 -17 13 -6 -7 10 -19 8 -28
-11 -55 -28 -41 -38 -48 -55 -41 -8 3 -13 -3 -13 -17 0 -36 -54 -115 -72 -104
-4 3 -8 26 -8 52 0 26 -5 64 -11 86 -8 27 -8 41 0 49 14 14 14 37 0 37 -5 0
-18 -17 -27 -37 l-17 -38 -3 45 c-4 53 12 157 40 255 22 74 46 135 54 135 3 0
27 -22 54 -50z m645 -167 c-5 -37 -16 -59 -50 -98 -24 -27 -46 -47 -48 -45 -2
3 -7 17 -10 31 -5 20 0 36 24 65 16 22 42 54 56 72 14 18 28 31 30 28 3 -3 2
-26 -2 -53z m-419 -68 c-9 -9 -16 -13 -16 -8 0 12 22 34 28 28 2 -2 -3 -11
-12 -20z m940 -37 c-3 -13 -6 -29 -6 -35 0 -17 -47 -17 -52 -1 -4 12 39 57 56
58 4 0 6 -10 2 -22z m-536 -122 c-13 -48 -57 -87 -71 -65 -21 33 -6 71 50 132
l26 29 3 -28 c2 -15 -2 -46 -8 -68z m188 16 c-20 -39 -48 -65 -100 -95 l-48
-28 0 26 c0 27 10 39 100 118 50 43 55 45 58 26 2 -12 -2 -33 -10 -47z m-308
44 c0 -7 -12 -26 -26 -41 -18 -20 -28 -25 -36 -17 -8 8 -7 13 5 18 9 3 17 12
17 20 0 7 8 18 18 23 22 13 22 13 22 -3z m-330 0 c0 -18 -22 -56 -30 -51 -11
7 8 55 22 55 4 0 8 -2 8 -4z m944 -31 c7 -29 -15 -79 -39 -88 -21 -8 -20 21 2
45 9 11 11 18 5 18 -7 0 -12 -4 -12 -10 0 -5 -5 -10 -11 -10 -6 0 -21 -9 -33
-20 -34 -31 -109 -85 -128 -93 -68 -26 82 135 152 164 58 23 57 23 64 -6z
m-982 -81 c-2 -16 -8 -33 -13 -38 -5 -6 -9 -19 -9 -31 0 -20 -66 -103 -74 -94
-3 2 14 48 37 101 41 95 65 121 59 62z m288 19 c0 -5 -7 -17 -15 -27 -15 -20
-15 -20 -15 0 0 12 3 24 7 27 9 9 23 9 23 0z m-154 -38 c7 -30 1 -40 -21 -32
-20 8 -20 57 0 57 8 0 17 -11 21 -25z m784 4 c0 -13 -17 -29 -50 -48 -24 -14
-24 -13 -10 5 39 51 60 66 60 43z m646 -8 c-3 -5 -15 -11 -26 -14 -17 -4 -19
-3 -9 9 12 15 44 20 35 5z m-1525 -24 c-10 -9 -11 -8 -5 6 3 10 9 15 12 12 3
-3 0 -11 -7 -18z m645 -23 c-4 -9 -9 -15 -11 -12 -3 3 -3 13 1 22 4 9 9 15 11
12 3 -3 3 -13 -1 -22z m814 12 c0 -2 -12 -12 -27 -21 l-28 -18 19 21 c17 20
36 29 36 18z m-1935 -53 c-6 -34 -25 -70 -25 -49 0 15 23 86 28 86 2 0 1 -17
-3 -37z m539 22 c3 -9 0 -15 -9 -15 -8 0 -15 7 -15 15 0 8 4 15 9 15 5 0 11
-7 15 -15z m1147 -76 c-25 -51 -37 -66 -41 -54 -5 15 -8 14 -23 -8 -9 -15 -17
-31 -17 -36 0 -11 -32 -31 -49 -31 -14 0 -14 47 -1 55 6 3 10 15 10 25 0 25
26 50 61 57 16 3 39 19 50 34 40 56 46 31 10 -42z m-1552 11 c1 -12 -2 -11
-15 2 -11 11 -14 23 -9 35 7 17 8 17 15 -2 5 -11 9 -27 9 -35z m1612 16 c-11
-27 -24 -37 -16 -11 3 8 7 22 10 31 3 9 8 15 11 12 2 -3 0 -17 -5 -32z m-1725
-13 c-8 -15 -15 -25 -16 -21 0 12 23 58 27 54 3 -2 -2 -17 -11 -33z m744 27
c0 -5 -5 -10 -11 -10 -5 0 -7 5 -4 10 3 6 8 10 11 10 2 0 4 -4 4 -10z m492
-15 c-43 -54 -83 -97 -88 -92 -8 8 89 116 104 117 2 0 -5 -11 -16 -25z m664 8
c-3 -10 -8 -30 -11 -45 -8 -30 -30 -28 -38 3 -3 12 3 27 16 39 26 25 40 26 33
3z m-1115 -50 c-10 -17 -10 -16 -11 3 0 23 13 41 18 25 2 -6 -1 -18 -7 -28z
m-423 -20 c-8 -21 -25 -58 -38 -83 -20 -38 -25 -41 -28 -23 -2 12 7 41 19 65
47 92 73 115 47 41z m2202 40 c-1 -15 -60 -96 -80 -110 -11 -8 -18 -19 -14
-24 5 -9 -72 -131 -88 -137 -4 -2 -8 -8 -8 -13 0 -5 -8 -17 -17 -28 -10 -10
-31 -33 -48 -51 -38 -43 -43 -25 -14 57 21 59 29 69 79 103 31 21 62 46 70 55
15 18 22 20 -97 -31 -44 -19 -41 -13 7 21 57 39 42 43 -25 6 -31 -17 -63 -30
-69 -29 -11 3 -36 -17 -136 -105 -49 -44 -35 -20 22 38 37 37 70 76 73 86 4
10 10 19 14 19 4 0 15 17 24 39 19 42 31 49 137 75 36 9 79 21 95 25 39 11 75
13 75 4z m-2436 -29 c3 -8 2 -12 -4 -9 -6 3 -10 10 -10 16 0 14 7 11 14 -7z
m1291 -33 c-3 -6 -11 -11 -17 -11 -6 0 -6 6 2 15 14 17 26 13 15 -4z m423 -8
c16 -35 15 -73 -1 -73 -9 0 -12 10 -10 33 3 28 2 29 -7 10 -5 -13 -13 -23 -18
-23 -5 0 -14 -10 -21 -22 -11 -23 -11 -23 -5 2 7 31 37 100 44 100 3 0 11 -12
18 -27z m-1738 -32 c0 -12 -4 -21 -9 -21 -5 0 -12 -8 -14 -17 -3 -10 -5 6 -6
35 -1 48 1 52 14 38 8 -8 15 -24 15 -35z m1643 22 c-9 -26 -43 -73 -53 -73
-11 0 26 71 42 82 18 11 18 10 11 -9z m-1723 -80 c0 -55 -4 -82 -9 -73 -8 14
-3 160 5 160 2 0 4 -39 4 -87z m2160 67 c0 -13 -104 -72 -108 -60 -6 18 19 50
41 50 12 0 29 5 37 10 19 12 30 13 30 0z m-830 -14 c0 -2 -8 -10 -17 -17 -16
-13 -17 -12 -4 4 13 16 21 21 21 13z m-1006 -45 c-4 -17 -9 -30 -11 -27 -3 2
-2 19 2 36 9 41 17 33 9 -9z m666 24 c0 -2 -10 -10 -22 -16 -21 -11 -22 -11
-9 4 13 16 31 23 31 12z m1040 -14 c0 -11 -8 -27 -17 -37 -17 -17 -18 -16 -21
11 -2 15 2 32 10 36 20 13 28 11 28 -10z m-67 -33 c-3 -16 -12 -28 -19 -28
-19 0 -18 16 3 40 21 24 23 22 16 -12z m-2126 -27 c14 -44 6 -148 -10 -132
-12 12 -22 171 -10 171 4 0 14 -17 20 -39z m-179 -37 c7 -4 -23 -114 -30 -114
-5 0 -8 8 -8 18 0 10 -3 22 -7 26 -8 8 -32 92 -33 115 0 9 13 4 38 -15 20 -15
38 -28 40 -30z m1977 16 c-3 -5 -11 -10 -16 -10 -6 0 -7 5 -4 10 3 6 11 10 16
10 6 0 7 -4 4 -10z m-1145 -9 c0 -12 -20 -25 -27 -18 -7 7 6 27 18 27 5 0 9
-4 9 -9z m-786 -165 c8 -17 17 -41 21 -53 9 -31 -15 -30 -43 2 -20 22 -21 32
-15 107 l7 83 8 -54 c5 -29 15 -67 22 -85z m2516 43 c-24 -71 -36 -89 -57 -89
-11 0 -13 7 -9 25 9 34 -6 31 -27 -5 -13 -21 -26 -30 -44 -30 l-26 0 23 28
c34 39 83 81 95 82 6 1 21 14 35 29 14 16 26 27 28 26 2 -2 -7 -31 -18 -66z
m-2652 -49 c8 -16 12 -38 9 -47 -3 -13 -8 -8 -20 19 -10 21 -17 42 -17 48 0
20 15 9 28 -20z m-198 -105 c0 -19 -4 -35 -10 -35 -5 0 -10 16 -10 35 0 19 5
35 10 35 6 0 10 -16 10 -35z m3004 16 c3 -5 -23 -27 -58 -50 -87 -56 -95 -58
-89 -27 4 21 11 26 37 27 29 0 30 1 8 10 -13 5 -22 15 -20 21 7 21 111 37 122
19z m-2939 -23 c5 -24 25 -148 25 -159 0 -3 -11 -4 -24 -2 -30 6 -39 45 -30
125 7 60 20 75 29 36z m3111 9 c2 -7 -1 -24 -9 -38 -32 -58 -60 -99 -67 -99
-4 0 -10 -9 -13 -20 -4 -17 -14 -20 -57 -20 -48 0 -51 1 -39 17 27 34 38 43
52 43 10 0 13 7 10 20 -3 12 1 22 11 26 9 3 16 13 16 22 0 13 -2 13 -18 -1
-10 -10 -22 -17 -27 -17 -5 0 -16 -7 -26 -16 -10 -9 -30 -14 -46 -12 l-28 3
43 30 c23 17 54 40 68 53 29 26 121 32 130 9z m-2984 -78 c10 -20 14 -39 9
-57 -11 -41 -34 -33 -47 18 l-11 45 -11 -35 c-10 -33 -10 -34 -11 -7 -1 15 -7
43 -15 62 -8 18 -12 35 -10 38 11 11 80 -36 96 -64z m113 61 c3 -5 1 -10 -4
-10 -6 0 -11 5 -11 10 0 6 2 10 4 10 3 0 8 -4 11 -10z m2645 -108 c0 -17 -66
-70 -92 -74 -35 -7 -35 2 -1 61 2 2 20 7 40 11 54 11 53 11 53 2z m-306 -57
c-14 -19 -30 -35 -35 -35 -12 0 -11 9 4 25 6 8 18 21 25 30 26 31 32 14 6 -20z
m150 -32 c-10 -7 -22 -13 -26 -13 -11 0 11 42 26 52 19 13 19 -25 0 -39z
m-2835 11 c3 -3 5 -20 5 -39 1 -19 4 -35 9 -35 4 0 7 -14 7 -31 0 -25 -4 -30
-21 -27 -22 3 -59 81 -59 126 0 19 4 22 28 16 15 -4 29 -8 31 -10z m319 -26
c18 -31 13 -43 -17 -33 -22 7 -36 38 -26 55 10 16 24 8 43 -22z m2722 6 c0
-10 -33 -33 -48 -34 -10 0 -10 5 -2 20 10 18 50 29 50 14z m-2922 -26 c7 -7 8
-17 1 -30 -15 -27 -29 -22 -29 12 0 32 9 37 28 18z m3450 -110 c-8 -13 -30
-38 -47 -57 -18 -19 -39 -43 -46 -54 -13 -18 -18 -19 -62 -8 -58 15 -93 31
-93 43 0 4 9 8 20 8 28 0 148 39 156 51 3 5 12 9 20 9 8 0 24 9 36 20 27 25
36 18 16 -12z m-3392 -6 c-9 -2 -25 -1 -34 3 -15 6 -15 8 3 15 12 4 26 3 34
-4 12 -9 11 -12 -3 -14z m2959 -32 c-3 -5 -19 -10 -35 -10 -16 0 -32 5 -35 10
-4 6 10 10 35 10 25 0 39 -4 35 -10z m-3205 -70 c6 -21 15 -42 21 -46 17 -10
-11 -24 -48 -24 -23 0 -36 6 -44 22 -7 13 -19 29 -27 37 -13 13 -10 17 24 32
56 25 62 23 74 -21z m176 -13 c8 -11 13 -22 9 -25 -9 -9 -55 45 -55 65 1 16 2
16 16 -2 8 -11 21 -28 30 -38z m115 31 c27 -13 49 -26 49 -29 0 -4 -14 -9 -30
-11 -33 -5 -64 11 -80 43 -14 26 -1 25 61 -3z m3044 -8 c4 -6 -8 -10 -29 -10
-19 0 -38 5 -41 10 -4 6 8 10 29 10 19 0 38 -4 41 -10z m-246 -13 c32 -16 29
-28 -13 -42 -29 -10 -37 -10 -50 3 -11 12 -12 19 -3 33 14 22 32 24 66 6z
m337 -62 c43 -36 41 -41 -41 -117 l-51 -47 -29 28 c-17 15 -49 36 -72 47 -46
21 -54 45 -29 80 16 20 18 20 109 -28 38 -19 25 -1 -18 27 -25 15 -45 31 -45
36 0 4 31 7 69 6 63 -1 74 -4 107 -32z m74 15 c13 -8 13 -10 -2 -10 -9 0 -20
5 -23 10 -8 13 5 13 25 0z m-3435 -70 c3 -5 -1 -10 -9 -10 -8 0 -18 5 -21 10
-3 6 1 10 9 10 8 0 18 -4 21 -10z m3488 -68 l58 -58 -60 -27 c-34 -15 -67 -27
-74 -27 -7 0 -22 -7 -33 -15 -25 -19 -58 -19 -95 0 l-30 16 53 55 c29 31 64
69 78 85 14 16 30 29 35 29 6 0 37 -26 68 -58z m-3603 18 c8 -5 12 -11 10 -13
-9 -7 -100 -36 -100 -31 0 7 37 41 51 47 20 8 22 8 39 -3z m113 3 c-7 -2 -19
-2 -25 0 -7 3 -2 5 12 5 14 0 19 -2 13 -5z m2897 -8 c-14 -17 -30 -20 -30 -6
0 5 8 12 18 14 9 3 19 5 21 6 2 0 -2 -6 -9 -14z m291 -36 c35 -12 66 -23 68
-25 3 -2 -6 -15 -19 -29 -26 -28 -60 -33 -60 -10 0 8 5 15 10 15 6 0 10 9 10
20 0 11 -3 19 -7 18 -5 -1 -19 3 -33 9 -14 6 -32 13 -40 16 -42 16 15 4 71
-14z m-3081 -18 c0 -17 -63 -22 -79 -6 -14 13 -10 15 32 15 26 0 47 -4 47 -9z
m622 -190 c141 -64 244 -97 339 -112 131 -19 134 -21 130 -54 -1 -17 -7 -38
-12 -47 -5 -9 -9 -47 -9 -83 0 -54 6 -79 30 -129 16 -33 41 -73 54 -87 32 -37
119 -97 151 -105 14 -3 28 -10 31 -15 3 -5 45 -9 94 -9 88 0 166 20 206 53 84
67 140 155 154 242 5 28 5 78 1 112 l-7 60 60 7 c64 7 150 20 351 54 66 11
139 24 163 27 49 9 50 6 27 -70 -22 -72 -92 -206 -134 -257 -20 -25 -51 -63
-70 -86 -37 -47 -162 -152 -180 -152 -6 0 -11 -4 -11 -8 0 -10 -97 -59 -142
-73 -81 -24 -289 -58 -361 -59 -64 0 -191 17 -222 30 -11 5 -48 18 -82 29
-156 52 -327 155 -429 259 -35 36 -64 69 -64 73 0 5 -13 31 -30 59 -16 28 -30
59 -30 70 0 10 -4 21 -9 25 -5 3 -15 31 -21 63 -7 31 -16 64 -20 72 -14 27
-23 130 -11 130 6 0 30 -9 53 -19z m2448 -1 c0 -5 -4 -10 -10 -10 -5 0 -10 5
-10 10 0 6 5 10 10 10 6 0 10 -4 10 -10z m-40 -23 c0 -13 -58 -53 -65 -45 -6
6 44 58 55 58 6 0 10 -6 10 -13z m147 -23 c73 -55 65 -78 -38 -109 -54 -16
-60 -16 -74 -1 -9 9 -21 16 -26 16 -19 0 -8 18 19 29 32 14 85 56 60 48 -43
-14 -88 -19 -88 -9 0 6 9 14 20 17 11 3 20 12 20 20 0 31 59 25 107 -11z
m-3164 -1 c-7 -2 -21 -2 -30 0 -10 3 -4 5 12 5 17 0 24 -2 18 -5z m-280 -60
c-7 -2 -13 -11 -13 -19 0 -17 -2 -17 -53 -2 -32 10 -36 13 -21 19 11 4 37 8
59 8 22 -1 34 -3 28 -6z m153 -7 c18 -14 18 -15 -8 -21 -39 -10 -64 1 -48 20
16 19 31 19 56 1z m2904 -46 c0 -5 -7 -10 -15 -10 -8 0 -15 5 -15 10 0 6 7 10
15 10 8 0 15 -4 15 -10z m233 -8 c16 -17 15 -19 -18 -35 -47 -22 -62 -21 -75
4 -7 11 -10 21 -8 22 2 1 12 7 23 14 29 17 60 15 78 -5z m-136 -60 c-9 -2 -27
-2 -39 1 -23 4 -23 4 2 14 18 8 29 8 39 -1 12 -9 12 -11 -2 -14z m-2949 -20
c14 -9 6 -42 -10 -42 -5 0 -6 -5 -3 -10 7 -11 -35 -30 -65 -30 -19 0 -19 1 1
38 12 20 23 40 26 45 6 9 35 9 51 -1z m3139 -29 c-34 -34 -39 -35 -62 -23 -27
15 -33 30 -11 30 7 0 27 7 42 15 16 8 38 15 48 15 16 0 13 -7 -17 -37z m-3257
11 c-8 -8 -15 -27 -16 -41 -4 -34 -12 -40 -31 -21 -14 15 -14 19 8 47 13 16
30 30 38 30 11 1 11 -2 1 -15z m3332 -11 c26 -24 22 -33 -15 -33 -43 0 -51 9
-30 32 20 22 22 22 45 1z m-3498 -54 c-18 -20 -18 -20 9 -14 25 7 27 5 27 -24
0 -17 -6 -41 -12 -53 -25 -41 -83 -96 -110 -102 -26 -6 -39 6 -19 18 5 3 12
21 15 40 4 19 13 39 20 45 8 7 17 23 20 37 10 38 36 74 54 74 12 0 12 -4 -4
-21z m431 1 c3 -5 1 -10 -4 -10 -6 0 -11 5 -11 10 0 6 2 10 4 10 3 0 8 -4 11
-10z m-315 -25 c0 -12 -37 -32 -45 -23 -1 1 1 13 6 25 9 24 39 22 39 -2z
m3415 -5 c-28 -12 -63 -12 -70 0 -4 6 12 10 42 9 36 0 43 -3 28 -9z m-3206
-22 c-9 -16 -14 -19 -17 -9 -2 7 2 17 9 22 20 13 21 11 8 -13z m2980 18 c-2
-3 -24 -11 -48 -19 -34 -12 -49 -13 -69 -4 l-26 12 30 6 c34 8 119 11 113 5z
m-3258 -49 c-10 -9 -11 -8 -5 6 3 10 9 15 12 12 3 -3 0 -11 -7 -18z m65 -31
c-8 -43 -9 -43 -77 -51 l-54 -7 40 39 c37 36 85 65 94 57 2 -2 0 -19 -3 -38z
m82 15 c38 -33 29 -51 -27 -51 l-49 0 16 35 c18 40 28 42 60 16z m2897 -81 c3
-5 -1 -10 -9 -10 -8 0 -18 5 -21 10 -3 6 1 10 9 10 8 0 18 -4 21 -10z m284
-31 c30 -29 51 -67 51 -92 0 -7 -5 -4 -11 6 -6 11 -29 35 -50 54 -36 33 -51
63 -30 63 4 0 22 -14 40 -31z m-3174 10 c8 -11 -90 -49 -115 -44 -14 2 -50 8
-80 13 -64 10 -46 18 59 27 35 2 66 7 69 10 7 7 62 2 67 -6z m3053 -15 l37
-26 -55 7 c-30 3 -65 9 -78 12 -21 5 -22 6 -5 19 27 21 60 17 101 -12z m-2920
-59 c-37 -36 -50 -44 -66 -38 -21 8 -21 8 4 41 27 34 48 43 37 15 -5 -12 -1
-11 15 5 12 12 29 22 38 22 11 0 1 -15 -28 -45z m-98 18 c-1 -20 -19 -35 -36
-29 -16 6 -16 7 2 21 21 16 34 19 34 8z m270 -114 c-7 -11 -14 -18 -17 -15 -3
3 0 12 7 21 18 21 23 19 10 -6z m-80 7 c0 -3 -4 -8 -10 -11 -5 -3 -10 -1 -10
4 0 6 5 11 10 11 6 0 10 -2 10 -4z m-136 -71 c-40 -47 -54 -53 -32 -13 22 38
40 58 55 58 8 0 -1 -18 -23 -45z m3169 10 c14 -19 47 -97 47 -110 0 -1 -32 -5
-71 -9 -71 -6 -103 -1 -78 14 15 10 -51 30 -97 30 -39 0 -49 9 -26 26 13 9 20
10 31 1 12 -10 13 -8 8 15 -7 26 -6 27 50 33 32 4 69 10 83 15 35 12 33 12 53
-15z m-238 -7 c33 -15 32 -25 -6 -33 -29 -7 -69 14 -69 37 0 12 45 10 75 -4z
m328 -45 c9 -24 12 -43 7 -43 -11 0 -40 64 -40 88 0 23 14 4 33 -45z m-24
-129 c6 -15 9 -29 6 -32 -7 -8 -135 18 -160 32 -17 9 -9 12 50 17 39 3 75 6
81 7 6 1 16 -10 23 -24z m69 -6 c5 -18 7 -35 5 -38 -7 -8 -33 32 -33 52 0 30
19 20 28 -14z m-493 -39 c9 -28 5 -30 -33 -12 -35 17 -34 33 3 33 15 0 26 -7
30 -21z m-175 -40 c8 -12 24 -31 35 -42 20 -20 20 -20 -11 -14 -38 7 -114 39
-114 48 0 5 46 23 70 28 3 1 12 -9 20 -20z m260 -11 c0 -11 -8 -10 -31 2 -28
16 -23 30 6 17 14 -7 25 -15 25 -19z m-2360 -84 c-8 -14 -22 -30 -32 -35 -14
-7 -11 0 9 29 31 44 44 47 23 6z m-185 -51 c-14 -58 -45 -71 -45 -20 0 39 6
47 33 47 16 0 18 -5 12 -27z m273 -25 c-3 -28 -16 -55 -34 -77 -16 -19 -45
-52 -64 -75 l-35 -41 40 34 c22 19 53 48 68 65 25 27 27 28 16 6 -7 -14 -16
-28 -21 -31 -5 -3 -10 -15 -12 -26 -2 -11 -18 -35 -35 -54 -17 -18 -31 -39
-31 -45 0 -7 -3 -14 -7 -16 -5 -1 -16 -21 -26 -42 -22 -47 -30 -40 -52 43 -18
70 -21 59 42 128 7 8 29 35 50 61 41 51 96 111 102 112 2 0 1 -19 -1 -42z
m2062 32 c0 -5 7 -10 15 -10 17 0 146 -82 165 -105 18 -21 0 -18 -30 5 -14 11
-28 20 -32 20 -11 0 -147 81 -154 91 -3 5 4 9 15 9 12 0 21 -4 21 -10z m144
-5 c11 -8 17 -17 14 -20 -7 -8 -58 16 -58 27 0 13 23 9 44 -7z m-2822 -78
c-10 -12 -39 -104 -67 -207 l-15 -55 6 60 c8 78 29 156 65 245 l14 35 3 -33
c2 -18 -1 -39 -6 -45z m250 18 c-2 -24 -11 -50 -20 -57 -13 -11 -15 -9 -9 17
6 32 25 85 29 85 2 0 2 -20 0 -45z m2158 -12 c0 -7 -4 -13 -10 -13 -5 0 -10 6
-10 14 0 8 -3 23 -6 33 -6 16 -5 16 9 -2 9 -11 17 -26 17 -32z m86 -15 c8 -16
13 -28 11 -28 -6 0 -57 79 -57 87 1 10 28 -25 46 -59z m-2184 -30 c-7 -7 -12
-8 -12 -2 0 14 12 26 19 19 2 -3 -1 -11 -7 -17z m1828 -67 c-1 -13 -30 34 -30
48 0 9 7 3 15 -13 8 -15 15 -31 15 -35z m303 2 c6 -16 16 -31 22 -35 5 -4 6
-10 3 -13 -9 -10 -44 26 -52 53 -10 32 12 28 27 -5z m105 -17 c12 -24 24 -55
28 -70 6 -25 5 -25 -25 -15 -20 7 -33 20 -38 37 -3 14 -12 37 -19 51 -19 36
-18 41 10 41 18 0 29 -10 44 -44z m-602 -7 c19 -22 19 -22 -3 -8 -13 8 -23 17
-23 21 0 12 6 9 26 -13z m766 -142 c15 -26 25 -47 23 -47 -2 0 -24 13 -48 30
-48 32 -62 71 -50 132 l6 30 21 -49 c12 -26 33 -70 48 -96z m-1800 69 c-2 -20
-8 -33 -13 -30 -10 6 -12 57 -3 67 13 13 20 -3 16 -37z m1489 -26 c10 -22 14
-40 9 -40 -11 0 -25 26 -34 65 -10 38 2 27 25 -25z m-1671 -20 c-6 -11 -8 -25
-4 -31 3 -6 3 -25 0 -44 -5 -26 -14 -36 -37 -44 -55 -19 -62 1 -27 82 13 29
34 62 48 74 24 20 25 21 28 3 2 -11 -2 -28 -8 -40z m1579 8 c6 -17 8 -34 5
-37 -9 -9 -44 39 -44 60 0 28 27 12 39 -23z m-1459 -30 c0 -21 -8 -31 -31 -43
-17 -9 -33 -14 -36 -12 -2 3 8 27 24 55 29 52 43 52 43 0z m1063 30 c2 -13 8
-32 13 -43 7 -17 6 -18 -8 -7 -24 19 -41 72 -24 72 8 0 16 -10 19 -22z m105
-33 c-3 -3 -9 2 -12 12 -6 14 -5 15 5 6 7 -7 10 -15 7 -18z m56 -1 c11 -28 6
-38 -9 -18 -8 10 -15 22 -15 27 0 13 18 7 24 -9z m-851 -105 c1 -26 -10 -54
-38 -102 -22 -37 -43 -67 -47 -67 -3 0 -12 16 -19 37 -13 40 -5 171 11 187 6
6 10 18 10 28 0 29 15 21 28 -16 14 -39 49 -76 39 -41 -3 11 -8 36 -11 55 l-6
35 16 -40 c8 -22 16 -56 17 -76z m-133 40 c-19 -42 -20 -43 -20 -14 0 31 31
88 37 69 2 -6 -5 -31 -17 -55z m1156 35 c19 -9 34 -20 34 -25 0 -9 -35 6 -70
30 -23 16 -2 13 36 -5z m-1694 -80 l-29 -45 -17 26 c-10 15 -15 29 -12 32 19
19 82 50 84 42 2 -5 -9 -30 -26 -55z m1041 -44 c5 -40 4 -61 -2 -55 -6 6 -12
46 -15 90 -7 92 7 65 17 -35z m-971 48 c-7 -7 -12 -8 -12 -2 0 14 12 26 19 19
2 -3 -1 -11 -7 -17z m1509 -107 c9 -14 19 -46 23 -71 l6 -45 -20 25 c-11 14
-23 34 -26 45 -4 11 -10 22 -14 25 -10 8 -70 120 -70 132 0 12 77 -72 101
-111z m-1075 43 c8 -24 9 -46 3 -67 -5 -18 -9 -57 -9 -88 0 -61 -3 -64 -110
-126 -35 -20 -149 -57 -156 -51 -2 2 9 17 24 34 45 50 72 92 79 124 7 36 22
48 34 29 6 -10 9 -2 9 24 0 38 15 51 23 20 3 -12 5 -8 6 9 1 28 31 88 44 88 4
0 7 6 7 13 0 15 21 39 29 32 2 -3 10 -21 17 -41z m328 -61 c-4 -16 -13 -39
-20 -53 -7 -14 -25 -52 -41 -85 -25 -54 -28 -57 -31 -32 -2 15 5 43 15 62 25
48 77 135 81 135 1 0 -1 -12 -4 -27z m-274 -54 c12 -21 -1 -49 -21 -49 -10 0
-12 53 -2 63 9 10 11 9 23 -14z m139 -97 c1 -39 5 -61 11 -57 6 3 10 -1 10
-11 0 -27 -121 -170 -149 -176 -20 -5 -41 76 -41 160 0 56 3 72 14 72 8 0 18
9 21 20 3 11 11 20 16 20 6 0 7 -5 3 -12 -4 -7 -3 -8 5 -4 6 4 19 2 28 -6 14
-12 15 -11 5 8 -9 17 -5 27 26 64 l37 43 6 -29 c4 -16 7 -57 8 -92z"/>
<path d="M1235 839 c-4 -6 -5 -12 -2 -15 2 -3 7 2 10 11 7 17 1 20 -8 4z"/>
<path d="M150 250 c-30 -11 -57 -20 -60 -20 -3 0 2 -5 10 -10 8 -5 36 -10 62
-10 81 0 221 -38 299 -80 30 -16 65 -35 79 -41 14 -6 49 -28 78 -50 l52 -40
112 3 111 3 -44 30 c-24 16 -46 32 -49 35 -5 5 -19 12 -136 73 -113 58 -160
77 -262 102 -116 30 -179 31 -252 5z"/>
</g>
</svg>
